<svg xmlns="http://www.w3.org/2000/svg"
     width="16.6667in" height="16.6667in"
     viewBox="0 0 1200 1200">
  <path id="Selection"
        fill="#5daabe" stroke="#5daabe" stroke-width="1"
        d="M 599.00,292.92
           C 593.77,294.71 584.13,300.75 579.00,303.80
             579.00,303.80 551.00,319.99 551.00,319.99
             551.00,319.99 469.00,367.40 469.00,367.40
             469.00,367.40 444.00,381.72 444.00,381.72
             441.40,383.20 433.44,387.45 431.99,389.61
             430.75,391.46 431.00,394.81 431.00,397.00
             431.00,397.00 431.00,578.00 431.00,578.00
             431.00,580.19 430.75,583.54 431.99,585.39
             433.23,587.23 437.03,589.16 439.00,590.28
             439.00,590.28 454.00,599.01 454.00,599.01
             454.00,599.01 530.00,643.00 530.00,643.00
             530.00,643.00 581.00,672.28 581.00,672.28
             585.10,674.62 596.83,682.74 601.00,682.08
             603.44,681.70 611.46,676.72 614.00,675.20
             614.00,675.20 639.00,660.72 639.00,660.72
             639.00,660.72 732.00,607.00 732.00,607.00
             732.00,607.00 757.00,592.58 757.00,592.58
             759.50,591.15 766.61,587.47 768.01,585.39
             769.25,583.54 769.00,580.19 769.00,578.00
             769.00,578.00 769.00,397.00 769.00,397.00
             769.00,394.81 769.25,391.46 768.01,389.61
             766.77,387.77 762.96,385.84 761.00,384.72
             761.00,384.72 745.00,375.42 745.00,375.42
             745.00,375.42 667.00,330.42 667.00,330.42
             667.00,330.42 620.00,303.28 620.00,303.28
             614.38,300.08 605.23,293.10 599.00,292.92 Z
           M 599.00,311.49
           C 605.60,311.63 615.09,318.76 621.00,322.15
             621.00,322.15 669.00,349.99 669.00,349.99
             669.00,349.99 733.00,386.99 733.00,386.99
             736.98,389.33 750.05,395.91 751.98,399.21
             753.21,401.31 753.00,404.61 753.00,407.00
             753.00,407.00 753.00,569.00 753.00,569.00
             753.00,571.15 753.26,574.56 752.01,576.37
             750.70,578.26 744.26,581.55 742.00,582.85
             742.00,582.85 720.00,595.60 720.00,595.60
             720.00,595.60 638.00,643.01 638.00,643.01
             638.00,643.01 614.00,656.99 614.00,656.99
             611.12,658.68 603.96,663.14 601.00,663.51
             596.36,664.09 586.24,657.11 582.00,654.60
             582.00,654.60 537.00,628.58 537.00,628.58
             537.00,628.58 469.00,589.28 469.00,589.28
             465.77,587.44 449.34,578.31 447.99,576.37
             446.74,574.56 447.00,571.15 447.00,569.00
             447.00,569.00 447.00,406.00 447.00,406.00
             447.00,403.85 446.74,400.44 447.99,398.63
             449.18,396.91 455.87,393.26 458.00,392.01
             458.00,392.01 481.00,378.72 481.00,378.72
             481.00,378.72 561.00,332.58 561.00,332.58
             568.34,328.32 592.78,313.18 599.00,311.49 Z
           M 598.00,404.91
           C 590.84,407.76 583.77,412.38 577.00,416.14
             574.27,417.66 569.60,419.53 568.02,422.21
             565.65,426.24 568.58,432.76 565.40,436.37
             565.40,436.37 541.00,450.42 541.00,450.42
             538.16,452.03 533.61,454.24 532.02,457.10
             530.80,459.30 531.00,462.53 531.00,465.00
             530.99,469.41 531.77,485.72 529.98,488.67
             527.56,492.66 520.42,493.86 518.17,497.39
             516.97,499.28 517.03,501.83 517.00,504.00
             517.00,504.00 517.00,526.00 517.00,526.00
             517.00,528.47 516.80,531.70 518.02,533.90
             519.91,537.30 532.92,543.55 537.00,545.77
             539.59,547.18 545.55,550.96 548.00,551.45
             553.44,552.54 554.97,547.60 561.00,550.01
             561.00,550.01 588.00,564.86 588.00,564.86
             591.03,566.55 596.61,570.22 600.00,570.22
             603.38,570.22 609.94,566.16 613.00,564.42
             613.00,564.42 639.00,550.15 639.00,550.15
             645.15,547.60 646.50,552.29 652.00,551.26
             654.85,550.73 660.30,547.37 663.00,545.86
             667.15,543.54 679.96,537.34 681.98,533.82
             683.00,532.03 682.96,529.98 683.10,528.00
             683.10,528.00 683.10,508.00 683.10,508.00
             683.03,505.87 683.82,499.64 683.10,498.27
             681.98,494.69 672.67,492.86 670.02,488.62
             668.25,485.79 669.01,469.33 669.00,465.00
             669.00,462.53 669.20,459.30 667.98,457.10
             666.39,454.23 661.84,452.04 659.00,450.42
             659.00,450.42 634.60,436.37 634.60,436.37
             631.23,432.54 634.57,425.71 632.74,422.27
             631.45,419.86 626.47,418.02 624.00,416.69
             617.44,413.16 605.13,404.18 598.00,404.91 Z
           M 620.00,424.00
           C 616.60,426.85 604.19,434.22 600.00,434.22
             595.87,434.22 583.44,426.77 580.00,424.00
             583.70,421.87 596.57,413.89 600.00,413.80
             603.51,413.71 616.43,421.76 620.00,424.00 Z
           M 576.00,431.00
           C 576.00,431.00 594.98,442.47 594.98,442.47
             594.98,442.47 596.00,465.00 596.00,465.00
             592.46,463.48 578.65,456.70 576.60,454.37
             574.04,451.46 574.53,434.70 576.00,431.00 Z
           M 625.00,431.00
           C 625.00,435.16 625.72,450.88 623.98,453.61
             622.14,456.49 607.77,463.38 604.00,465.00
             604.00,461.47 603.59,445.53 604.57,443.38
             606.05,440.15 621.17,432.71 625.00,431.00 Z
           M 567.00,446.00
           C 567.00,449.06 566.63,454.33 568.02,456.96
             570.46,461.56 582.17,466.70 587.00,469.42
             590.08,471.16 596.69,475.56 600.00,475.56
             602.82,475.56 606.50,473.12 609.00,471.77
             614.05,469.03 629.64,461.36 631.98,456.96
             633.37,454.33 633.00,449.06 633.00,446.00
             633.00,446.00 652.00,455.86 652.00,455.86
             652.00,455.86 659.98,461.39 659.98,461.39
             659.98,461.39 661.00,467.00 661.00,467.00
             661.00,467.00 661.00,485.00 661.00,485.00
             661.00,485.00 650.00,480.61 650.00,480.61
             650.00,480.61 638.00,486.42 638.00,486.42
             638.00,486.42 619.02,498.21 619.02,498.21
             619.02,498.21 618.00,506.00 618.00,506.00
             618.00,506.00 618.00,526.00 618.00,526.00
             618.00,526.00 619.02,533.62 619.02,533.62
             619.02,533.62 633.00,544.00 633.00,544.00
             633.00,544.00 612.00,555.58 612.00,555.58
             612.00,555.58 601.00,561.13 601.00,561.13
             601.00,561.13 591.00,557.23 591.00,557.23
             591.00,557.23 567.00,543.00 567.00,543.00
             580.18,534.42 581.98,537.56 581.96,526.00
             581.96,526.00 581.96,508.00 581.96,508.00
             582.03,505.57 582.88,500.12 581.96,498.27
             580.77,496.18 576.17,494.21 574.00,493.00
             574.00,493.00 558.00,484.14 558.00,484.14
             555.76,482.89 552.58,480.74 550.00,480.66
             547.40,480.58 541.75,483.81 539.00,485.00
             539.00,485.00 539.60,462.21 539.60,462.21
             539.60,462.21 547.00,456.58 547.00,456.58
             547.00,456.58 567.00,446.00 567.00,446.00 Z
           M 569.00,499.00
           C 569.00,499.00 569.00,501.00 569.00,501.00
             569.00,501.00 551.00,509.83 551.00,509.83
             546.72,510.66 534.82,503.08 530.00,501.00
             530.00,501.00 530.00,499.00 530.00,499.00
             533.91,497.12 545.83,489.83 549.00,489.60
             553.24,489.30 564.68,496.72 569.00,499.00 Z
           M 670.00,499.00
           C 670.00,499.00 670.00,501.00 670.00,501.00
             665.18,503.08 653.28,510.66 649.00,509.83
             649.00,509.83 631.00,501.00 631.00,501.00
             631.00,501.00 631.00,499.00 631.00,499.00
             634.36,497.22 646.38,490.24 649.00,489.74
             653.76,488.84 665.32,496.53 670.00,499.00 Z
           M 526.00,507.00
           C 526.00,507.00 544.98,518.39 544.98,518.39
             544.98,518.39 546.00,541.00 546.00,541.00
             546.00,541.00 525.99,529.39 525.99,529.39
             525.99,529.39 525.00,524.00 525.00,524.00
             525.00,524.00 526.00,507.00 526.00,507.00 Z
           M 574.00,507.00
           C 574.00,510.60 574.42,526.43 573.43,528.67
             571.74,532.48 558.20,538.80 554.00,540.00
             554.00,535.83 553.34,521.07 555.02,518.21
             556.80,515.20 570.26,508.62 574.00,507.00 Z
           M 627.00,507.00
           C 627.00,507.00 644.98,518.21 644.98,518.21
             644.98,518.21 646.00,540.00 646.00,540.00
             642.18,538.91 628.99,532.54 627.00,529.47
             625.12,526.59 625.67,510.35 627.00,507.00 Z
           M 675.00,507.00
           C 675.00,507.00 674.01,529.47 674.01,529.47
             674.01,529.47 654.00,541.00 654.00,541.00
             654.00,541.00 655.02,518.39 655.02,518.39
             655.02,518.39 675.00,507.00 675.00,507.00 Z
           M 424.00,778.44
           C 414.45,780.20 408.98,781.82 401.00,787.76
             378.76,804.32 376.79,840.89 395.17,860.99
             409.84,877.02 436.26,880.22 454.96,869.74
             461.75,865.93 460.43,860.28 455.94,858.61
             452.12,857.19 447.48,860.15 444.00,861.55
             438.06,863.94 434.33,864.25 428.00,863.96
             402.91,862.83 389.98,836.30 397.36,814.00
             402.83,797.45 416.30,789.80 433.00,790.00
             438.89,790.07 441.62,790.96 447.00,793.31
             449.96,794.60 453.63,796.76 456.85,794.96
             463.75,791.11 457.20,784.94 453.00,782.81
             444.61,778.55 433.26,777.25 424.00,778.44 Z
           M 349.00,823.00
           C 351.80,821.09 354.10,819.67 356.20,816.91
             364.65,805.79 361.19,787.21 348.00,781.36
             339.71,777.68 316.09,778.98 306.00,779.00
             294.73,779.02 294.02,781.03 294.00,792.00
             294.00,792.00 294.00,861.00 294.00,861.00
             294.01,864.22 293.76,869.05 295.85,871.69
             298.75,875.33 314.11,874.00 319.00,874.00
             330.11,874.00 345.71,875.77 355.00,869.20
             362.95,863.58 364.96,857.27 365.00,848.00
             365.02,842.32 365.16,838.06 362.01,833.00
             358.66,827.62 354.58,825.42 349.00,823.00 Z
           M 510.00,817.00
           C 510.00,817.00 485.33,784.02 485.33,784.02
             482.40,780.49 476.30,776.18 473.04,782.15
             471.55,784.88 472.95,787.63 474.40,790.00
             474.40,790.00 486.13,806.00 486.13,806.00
             489.00,809.83 501.14,825.82 502.28,829.00
             503.29,831.84 503.00,837.79 503.00,841.00
             503.00,841.00 503.00,863.00 503.00,863.00
             503.00,865.45 502.76,869.52 504.17,871.57
             506.23,874.55 511.56,874.69 513.83,870.85
             515.21,868.52 515.00,864.67 515.00,862.00
             515.00,862.00 515.00,835.00 515.00,835.00
             515.14,827.18 518.73,824.15 523.14,818.00
             523.14,818.00 543.70,789.00 543.70,789.00
             545.98,784.29 544.41,777.92 538.04,779.33
             534.03,780.22 531.16,785.81 528.85,789.00
             524.31,795.25 512.42,810.78 510.00,817.00 Z
           M 577.00,836.00
           C 582.72,837.42 603.31,836.82 609.00,835.47
             611.52,834.88 613.84,833.83 615.99,832.39
             631.54,821.95 632.70,796.10 617.99,784.39
             608.35,776.72 588.11,778.98 576.00,779.00
             564.73,779.02 564.02,781.03 564.00,792.00
             564.00,792.00 564.00,861.00 564.00,861.00
             564.01,864.22 563.76,869.05 565.85,871.69
             568.38,874.86 575.80,875.68 576.00,865.00
             576.15,856.66 575.15,843.61 577.00,836.00 Z
           M 664.00,832.00
           C 664.00,832.00 714.00,832.00 714.00,832.00
             714.00,832.00 714.00,866.00 714.00,866.00
             714.07,869.34 714.07,872.76 718.06,873.67
             725.30,875.32 725.97,868.03 726.00,863.00
             726.00,863.00 726.00,791.00 726.00,791.00
             726.00,788.01 726.31,783.83 724.26,781.43
             721.50,778.19 714.08,776.99 714.00,789.00
             714.00,789.00 714.00,820.00 714.00,820.00
             714.00,820.00 664.00,820.00 664.00,820.00
             664.00,820.00 663.43,785.00 663.43,785.00
             661.60,778.75 655.93,777.87 653.01,781.43
             650.75,784.18 651.01,788.64 651.00,792.00
             651.00,792.00 651.00,861.00 651.00,861.00
             651.01,864.22 650.76,869.05 652.85,871.69
             655.39,874.88 661.01,874.81 662.97,869.94
             664.27,866.71 664.00,860.59 664.00,857.00
             664.00,857.00 664.00,832.00 664.00,832.00 Z
           M 767.00,863.00
           C 767.00,863.00 767.00,831.00 767.00,831.00
             767.00,831.00 797.00,831.00 797.00,831.00
             800.75,830.99 806.39,831.62 807.53,826.90
             809.24,819.79 801.54,820.01 797.00,820.00
             797.00,820.00 767.00,820.00 767.00,820.00
             767.00,820.00 767.00,790.00 767.00,790.00
             767.00,790.00 806.00,790.00 806.00,790.00
             809.20,789.94 812.92,789.90 813.63,785.94
             814.66,780.24 809.26,779.08 805.00,779.00
             805.00,779.00 766.00,779.00 766.00,779.00
             754.73,779.02 754.02,781.03 754.00,792.00
             754.00,792.00 754.00,861.00 754.00,861.00
             754.01,864.49 753.69,869.86 756.51,872.40
             759.06,874.70 766.56,874.00 770.00,874.00
             770.00,874.00 804.00,874.00 804.00,874.00
             806.18,874.00 809.85,874.21 811.69,872.98
             814.79,870.91 814.22,866.02 810.85,864.02
             808.80,862.81 805.35,863.00 803.00,863.00
             803.00,863.00 767.00,863.00 767.00,863.00 Z
           M 850.00,836.00
           C 850.00,836.00 881.00,836.53 881.00,836.53
             884.16,837.26 887.28,838.74 889.44,841.21
             896.12,848.85 889.97,860.86 898.22,869.94
             899.80,871.68 901.65,873.18 904.00,873.67
             907.63,874.42 911.86,872.19 911.04,868.00
             910.43,864.93 907.13,862.93 905.72,858.00
             903.77,851.16 907.54,838.44 894.00,831.00
             894.00,831.00 894.00,829.00 894.00,829.00
             910.49,822.52 911.89,797.70 899.82,786.33
             890.79,777.82 879.36,779.00 868.00,779.00
             868.00,779.00 849.00,779.00 849.00,779.00
             837.73,779.02 837.02,781.03 837.00,792.00
             837.00,792.00 837.00,861.00 837.00,861.00
             837.01,864.22 836.76,869.05 838.85,871.69
             841.40,874.89 847.10,874.75 849.11,869.94
             850.28,867.14 850.00,861.20 850.00,858.00
             850.00,858.00 850.00,836.00 850.00,836.00 Z
           M 576.00,825.00
           C 576.00,825.00 576.00,790.00 576.00,790.00
             584.89,790.00 604.06,788.21 610.86,793.65
             618.67,799.98 618.50,815.10 610.86,821.61
             606.73,825.17 603.11,824.99 598.00,825.00
             598.00,825.00 576.00,825.00 576.00,825.00 Z
           M 851.00,825.83
           C 851.00,825.83 850.00,790.00 850.00,790.00
             850.00,790.00 876.00,790.00 876.00,790.00
             880.68,790.06 885.12,790.46 888.98,793.43
             898.06,800.40 896.68,815.81 887.96,822.57
             884.44,825.30 879.96,825.64 875.67,825.83
             875.67,825.83 851.00,825.83 851.00,825.83 Z
           M 307.00,819.00
           C 307.00,819.00 307.00,791.00 307.00,791.00
             307.00,791.00 333.00,791.00 333.00,791.00
             337.12,791.02 340.31,790.95 343.66,793.80
             349.96,799.16 349.39,811.40 342.90,816.35
             339.41,819.01 336.14,818.98 332.00,819.00
             332.00,819.00 307.00,819.00 307.00,819.00 Z
           M 307.00,863.00
           C 307.00,863.00 307.00,831.00 307.00,831.00
             307.00,831.00 334.00,831.00 334.00,831.00
             338.45,831.02 341.97,831.16 345.97,833.41
             355.58,838.80 355.43,854.99 345.97,860.44
             341.91,862.78 337.53,862.98 333.00,863.00
             333.00,863.00 307.00,863.00 307.00,863.00 Z" />
</svg>
